  
 Ace Ventura Pet Detective 1994 720p HDTV.mp4
      Format : MPEG-4
      Format profile : Base Media
      Codec ID : isom
      File size : 1.28 GiB
      Duration : 1h 25mn
      Overall bit rate : 2 127 Kbps
      
   Video #1
      Format : AVC
      Format/Info : Advanced Video Codec
      Format profile : High@L4.1
      Format settings, CABAC : Yes
      Format settings, ReFrames : 8 frames
      Codec ID : avc1
      Codec ID/Info : Advanced Video Coding
      Duration : 1h 25mn
      Bit rate mode : Variable
      Bit rate : 1 800 Kbps
      Maximum bit rate : 12.9 Mbps
      Width : 1 280 pixels
      Height : 720 pixels
      Display aspect ratio : 16/9
      Frame rate mode : Constant
      Frame rate : 23.976 fps
      Resolution : 24 bits
      Colorimetry : 4:2:0
      Scan type : Progressive
      Bits/(Pixel*Frame) : 0.081
      Stream size : 1.08 GiB (85%)
      Writing library : x264 core 98 r1649 c54c47d
     
   Audio #2
      Format : AAC
      Format/Info : Advanced Audio Codec
      Format version : Version 4
      Format profile : LC
      Format settings, SBR : No
      Codec ID : 40
      Duration : 1h 25mn
      Bit rate mode : Variable
      Bit rate : 324 Kbps
      Maximum bit rate : 342 Kbps
      Channel(s) : 2 channels
      Channel positions : L R
      Sampling rate : 48.0 KHz
      Resolution : 16 bits
      Stream size : 199 MiB (15%)
      